HIERARCHY
ROOT Hips
{
  OFFSET 0.849866 78.6569 -0.536788
  CHANNELS 6 Xposition Yposition Zposition Zrotation Xrotation Yrotation
  JOINT Bip01_Pelvis
  {
    OFFSET 0 0 0
    CHANNELS 6 Xposition Yposition Zposition Zrotation Xrotation Yrotation
    JOINT BN_Tail_01
    {
      OFFSET -5.52397 -0.332285 0
      CHANNELS 6 Xposition Yposition Zposition Zrotation Xrotation Yrotation
      JOINT BN_Tail_02
      {
        OFFSET 6.48885 -2.032e-005 0
        CHANNELS 6 Xposition Yposition Zposition Zrotation Xrotation Yrotation
        JOINT BN_Tail_03
        {
          OFFSET 7.08759 1.016e-005 -0.00261112
          CHANNELS 6 Xposition Yposition Zposition Zrotation Xrotation Yrotation
          End Site
          {
            OFFSET 0 0 0
          }
        }
      }
    }
    JOINT Bip01_Spine
    {
      OFFSET 4.02227 0.398968 0
      CHANNELS 6 Xposition Yposition Zposition Zrotation Xrotation Yrotation
      JOINT BN_UpperArm_R_01
      {
        OFFSET 4.84413 -3.22857 -3.65581
        CHANNELS 6 Xposition Yposition Zposition Zrotation Xrotation Yrotation
        JOINT BN_Forearm_R_01
        {
          OFFSET 8.51614 0 0
          CHANNELS 6 Xposition Yposition Zposition Zrotation Xrotation Yrotation
          JOINT BN_hand_R_01
          {
            OFFSET 10.1924 0 0
            CHANNELS 6 Xposition Yposition Zposition Zrotation Xrotation Yrotation
            JOINT BN_Finger_R_02
            {
              OFFSET 14.5949 -1.43855 0.585079
              CHANNELS 6 Xposition Yposition Zposition Zrotation Xrotation Yrotation
              End Site
              {
                OFFSET 0 0 0
              }
            }
            JOINT BN_Finger_R_01
            {
              OFFSET 14.4623 0 0
              CHANNELS 6 Xposition Yposition Zposition Zrotation Xrotation Yrotation
              End Site
              {
                OFFSET 0 0 0
              }
            }
          }
        }
      }
      JOINT BN_UpperArm_L_01
      {
        OFFSET 4.84412 -3.22858 3.65557
        CHANNELS 6 Xposition Yposition Zposition Zrotation Xrotation Yrotation
        JOINT BN_Forearm_L_01
        {
          OFFSET 8.51611 0 0
          CHANNELS 6 Xposition Yposition Zposition Zrotation Xrotation Yrotation
          JOINT BN_hand_L_01
          {
            OFFSET 10.1924 0 0
            CHANNELS 6 Xposition Yposition Zposition Zrotation Xrotation Yrotation
            JOINT BN_Finger_L_01
            {
              OFFSET 14.4623 0 0
              CHANNELS 6 Xposition Yposition Zposition Zrotation Xrotation Yrotation
              End Site
              {
                OFFSET 0 0 0
              }
            }
            JOINT BN_Finger_L_02
            {
              OFFSET 14.5949 1.43855 0.585071
              CHANNELS 6 Xposition Yposition Zposition Zrotation Xrotation Yrotation
              End Site
              {
                OFFSET 0 0 0
              }
            }
          }
        }
      }
      JOINT Bip01_R_Thigh
      {
        OFFSET -4.03411 -0.254132 -3.45377
        CHANNELS 6 Xposition Yposition Zposition Zrotation Xrotation Yrotation
        JOINT Bip01_R_Calf
        {
          OFFSET 3.92618 0 0
          CHANNELS 6 Xposition Yposition Zposition Zrotation Xrotation Yrotation
          JOINT Bip01_R_HorseLink
          {
            OFFSET 6.12319 0 0
            CHANNELS 6 Xposition Yposition Zposition Zrotation Xrotation Yrotation
            JOINT Bip01_R_Foot
            {
              OFFSET 9.94776 0 0
              CHANNELS 6 Xposition Yposition Zposition Zrotation Xrotation Yrotation
              JOINT Bip01_R_Toe3
              {
                OFFSET 0.881252 -0.110953 0.0158496
                CHANNELS 6 Xposition Yposition Zposition Zrotation Xrotation Yrotation
                JOINT Bip01_R_Toe31
                {
                  OFFSET 2.32137 0 0
                  CHANNELS 6 Xposition Yposition Zposition Zrotation Xrotation Yrotation
                  JOINT Bip01_R_Toe32
                  {
                    OFFSET 1.63293 0 0
                    CHANNELS 6 Xposition Yposition Zposition Zrotation Xrotation Yrotation
                    JOINT Bip01_R_Toe3Nub
                    {
                      OFFSET 1.72131 0 0
                      CHANNELS 6 Xposition Yposition Zposition Zrotation Xrotation Yrotation
                      End Site
                      {
                        OFFSET 0 0 0
                      }
                    }
                  }
                }
              }
              JOINT Bip01_R_Toe2
              {
                OFFSET 0.994751 0.967285 -1.09428
                CHANNELS 6 Xposition Yposition Zposition Zrotation Xrotation Yrotation
                JOINT Bip01_R_Toe21
                {
                  OFFSET 2.20201 0 0
                  CHANNELS 6 Xposition Yposition Zposition Zrotation Xrotation Yrotation
                  JOINT Bip01_R_Toe22
                  {
                    OFFSET 1.84925 0 0
                    CHANNELS 6 Xposition Yposition Zposition Zrotation Xrotation Yrotation
                    JOINT Bip01_R_Toe2Nub
                    {
                      OFFSET 1.70976 0 0
                      CHANNELS 6 Xposition Yposition Zposition Zrotation Xrotation Yrotation
                      End Site
                      {
                        OFFSET 0 0 0
                      }
                    }
                  }
                }
              }
              JOINT Bip01_R_Toe1
              {
                OFFSET 1.3748 1.34027 -0.0712419
                CHANNELS 6 Xposition Yposition Zposition Zrotation Xrotation Yrotation
                JOINT Bip01_R_Toe11
                {
                  OFFSET 2.26122 0 0
                  CHANNELS 6 Xposition Yposition Zposition Zrotation Xrotation Yrotation
                  JOINT Bip01_R_Toe12
                  {
                    OFFSET 2.22215 0 0
                    CHANNELS 6 Xposition Yposition Zposition Zrotation Xrotation Yrotation
                    JOINT Bip01_R_Toe1Nub
                    {
                      OFFSET 1.61867 0 0
                      CHANNELS 6 Xposition Yposition Zposition Zrotation Xrotation Yrotation
                      End Site
                      {
                        OFFSET 0 0 0
                      }
                    }
                  }
                }
              }
              JOINT Bip01_R_Toe0
              {
                OFFSET 1.40695 0.687986 0.883783
                CHANNELS 6 Xposition Yposition Zposition Zrotation Xrotation Yrotation
                JOINT Bip01_R_Toe01
                {
                  OFFSET 2.26828 0 0
                  CHANNELS 6 Xposition Yposition Zposition Zrotation Xrotation Yrotation
                  JOINT Bip01_R_Toe02
                  {
                    OFFSET 2.09769 0 0
                    CHANNELS 6 Xposition Yposition Zposition Zrotation Xrotation Yrotation
                    JOINT Bip01_R_Toe0Nub
                    {
                      OFFSET 1.53753 0 0
                      CHANNELS 6 Xposition Yposition Zposition Zrotation Xrotation Yrotation
                      End Site
                      {
                        OFFSET 0 0 0
                      }
                    }
                  }
                }
              }
            }
          }
        }
      }
      JOINT Bip01_L_Thigh
      {
        OFFSET -4.03411 -0.254147 3.45377
        CHANNELS 6 Xposition Yposition Zposition Zrotation Xrotation Yrotation
        JOINT Bip01_L_Calf
        {
          OFFSET 3.92616 0 0
          CHANNELS 6 Xposition Yposition Zposition Zrotation Xrotation Yrotation
          JOINT Bip01_L_HorseLink
          {
            OFFSET 6.1232 0 0
            CHANNELS 6 Xposition Yposition Zposition Zrotation Xrotation Yrotation
            JOINT Bip01_L_Foot
            {
              OFFSET 9.94775 0 0
              CHANNELS 6 Xposition Yposition Zposition Zrotation Xrotation Yrotation
              JOINT Bip01_L_Toe3
              {
                OFFSET 0.881246 -0.110986 -0.0157582
                CHANNELS 6 Xposition Yposition Zposition Zrotation Xrotation Yrotation
                JOINT Bip01_L_Toe31
                {
                  OFFSET 2.32136 0 0
                  CHANNELS 6 Xposition Yposition Zposition Zrotation Xrotation Yrotation
                  JOINT Bip01_L_Toe32
                  {
                    OFFSET 1.63293 0 0
                    CHANNELS 6 Xposition Yposition Zposition Zrotation Xrotation Yrotation
                    JOINT Bip01_L_Toe3Nub
                    {
                      OFFSET 1.7213 0 0
                      CHANNELS 6 Xposition Yposition Zposition Zrotation Xrotation Yrotation
                      End Site
                      {
                        OFFSET 0 0 0
                      }
                    }
                  }
                }
              }
              JOINT Bip01_L_Toe2
              {
                OFFSET 0.994649 0.967162 1.09447
                CHANNELS 6 Xposition Yposition Zposition Zrotation Xrotation Yrotation
                JOINT Bip01_L_Toe21
                {
                  OFFSET 2.202 0 0
                  CHANNELS 6 Xposition Yposition Zposition Zrotation Xrotation Yrotation
                  JOINT Bip01_L_Toe22
                  {
                    OFFSET 1.84926 0 0
                    CHANNELS 6 Xposition Yposition Zposition Zrotation Xrotation Yrotation
                    JOINT Bip01_L_Toe2Nub
                    {
                      OFFSET 1.70976 0 0
                      CHANNELS 6 Xposition Yposition Zposition Zrotation Xrotation Yrotation
                      End Site
                      {
                        OFFSET 0 0 0
                      }
                    }
                  }
                }
              }
              JOINT Bip01_L_Toe1
              {
                OFFSET 1.37483 1.34021 0.0715086
                CHANNELS 6 Xposition Yposition Zposition Zrotation Xrotation Yrotation
                JOINT Bip01_L_Toe11
                {
                  OFFSET 2.26124 0 0
                  CHANNELS 6 Xposition Yposition Zposition Zrotation Xrotation Yrotation
                  JOINT Bip01_L_Toe12
                  {
                    OFFSET 2.22214 0 0
                    CHANNELS 6 Xposition Yposition Zposition Zrotation Xrotation Yrotation
                    JOINT Bip01_L_Toe1Nub
                    {
                      OFFSET 1.61867 0 0
                      CHANNELS 6 Xposition Yposition Zposition Zrotation Xrotation Yrotation
                      End Site
                      {
                        OFFSET 0 0 0
                      }
                    }
                  }
                }
              }
              JOINT Bip01_L_Toe0
              {
                OFFSET 1.40707 0.688009 -0.883564
                CHANNELS 6 Xposition Yposition Zposition Zrotation Xrotation Yrotation
                JOINT Bip01_L_Toe01
                {
                  OFFSET 2.26828 0 0
                  CHANNELS 6 Xposition Yposition Zposition Zrotation Xrotation Yrotation
                  JOINT Bip01_L_Toe02
                  {
                    OFFSET 2.0977 0 0
                    CHANNELS 6 Xposition Yposition Zposition Zrotation Xrotation Yrotation
                    JOINT Bip01_L_Toe0Nub
                    {
                      OFFSET 1.53752 0 0
                      CHANNELS 6 Xposition Yposition Zposition Zrotation Xrotation Yrotation
                      End Site
                      {
                        OFFSET 0 0 0
                      }
                    }
                  }
                }
              }
            }
          }
        }
      }
      JOINT Bip01_Spine1
      {
        OFFSET 4.90674 -0.00437896 0
        CHANNELS 6 Xposition Yposition Zposition Zrotation Xrotation Yrotation
        JOINT Bip01_Neck
        {
          OFFSET 5.56447 -1.28357 0
          CHANNELS 6 Xposition Yposition Zposition Zrotation Xrotation Yrotation
          JOINT Bip01_Neck1
          {
            OFFSET 2.79308 -0.00219964 0
            CHANNELS 6 Xposition Yposition Zposition Zrotation Xrotation Yrotation
            JOINT Bip01_Head
            {
              OFFSET 2.79272 0 0
              CHANNELS 6 Xposition Yposition Zposition Zrotation Xrotation Yrotation
              JOINT BN_Mouth_01
              {
                OFFSET 4.19089 0.0665938 0
                CHANNELS 6 Xposition Yposition Zposition Zrotation Xrotation Yrotation
                End Site
                {
                  OFFSET 0 0 0
                }
              }
              JOINT Bip01_HeadNub
              {
                OFFSET 6.95118 0 0
                CHANNELS 6 Xposition Yposition Zposition Zrotation Xrotation Yrotation
                End Site
                {
                  OFFSET 0 0 0
                }
              }
            }
          }
        }
      }
    }
  }
}
MOTION
Frames:	3
Frame Time:	0.0333333
0.849867 91.595 -1.86276e-007 179.379 -90 -90 0 0 0 -89.9965 12.1786 -89.9964 -5.52397 -0.332283 -4.33681e-018 -27.3677 0.00778199 179.971 6.48883 2.84217e-014 -0.00308864 36.6899 6.11208e-010 4.60484e-010 7.0876 7.6294e-006 -0.00338582 49.4683 0.0308667 0.0217283 3.9586 0.817231 1.56125e-017 14.9332 -2.08202e-010 -9.93441e-012 4.84413 -3.22853 -3.65581 -110.547 -9.16748 107.43 8.51612 1.90735e-006 1.42109e-014 22.8598 -1.89981 35.8726 10.1924 7.10544e-015 -1.90735e-006 -36.6545 1.61934 47.3198 14.5949 -1.43856 0.585085 -48.1789 -5.35464 -10.9209 14.4623 9.53677e-007 2.86102e-006 -15.548 -5.34615 -0.629028 4.84413 -3.22854 3.65557 63.0314 -10.258 -74.7632 8.51613 -1.90735e-006 -3.8147e-006 -26.9071 0.319933 35.851 10.1924 -3.8147e-006 -1.90735e-006 37.6534 -4.10794 41.9549 14.4623 -4.76838e-006 -7.10542e-015 11.4283 4.1089 0.0382417 14.5949 1.43855 0.585066 45.9115 3.44696 -10.9582 -4.03536 0.23066 -3.45377 -99.4327 1.59214 -177.958 3.92618 -4.76838e-007 -1.33227e-015 -84.7628 1.02723e-006 9.95706e-006 6.1232 1.42109e-014 4.76837e-007 122.299 -5.20112e-006 -8.6211e-006 9.94776 3.81472e-006 1.77636e-014 -60.6881 14.997 2.57401 0.881234 -0.111043 0.0157101 163.536 -4.57388 -179.354 2.32136 -3.81473e-006 -0.00069809 43.4808 0.0263699 0.0232995 1.63293 7.62949e-006 -1.77636e-015 -116.921 -8.24627e-006 1.07077e-005 1.7213 -7.10557e-015 8.88178e-016 -1.02271e-005 3.39896e-007 9.91238e-006 0.994617 0.967011 -1.09461 38.2757 -23.188 15.1771 2.20203 9.53685e-007 1.90735e-006 17.8569 -0.0158673 -0.0102627 1.84924 3.81475e-006 0.000741958 -63.0954 0.0108869 -0.0114882 1.70976 4.76847e-007 -8.88178e-016 -1.37004e-007 1.82898e-006 -2.45187e-007 1.37489 1.34013 -0.0717066 43.4648 1.95526 -1.85319 2.26123 -4.76843e-007 4.76837e-007 9.9514 -0.00818616 -0.0467068 2.22214 1.90737e-006 5.77316e-015 -82.6033 0.000710542 0.00555801 1.61866 1.90739e-006 -4.76837e-007 -1.19254e-006 1.11369e-005 1.10554e-006 1.40716 0.687998 0.883418 51.3216 21.2539 -24.3624 2.26829 9.53686e-007 3.81469e-006 12.2528 -0.00807833 -0.0282344 2.09769 3.81475e-006 1.06581e-014 -84.9902 -0.000268956 -0.00298258 1.53753 1.90739e-006 3.73035e-014 7.33681e-007 4.6044e-006 1.09721e-006 -4.03522 0.232019 3.45377 -120.288 -0.803055 176.633 3.92615 3.8147e-006 -2.98023e-008 -84.5451 1.72417e-005 -1.73863e-006 6.12318 -1.52588e-005 -2.68221e-007 110.535 -3.55036e-006 -9.41109e-006 9.94774 0 -4.47035e-008 -57.7786 -15.6958 1.34514 0.881234 -0.110951 -0.0158548 138.876 4.39363 -178.714 2.32137 7.1055e-015 2.66454e-015 21.6916 -0.00737731 0.00293476 1.63293 0 -4.76837e-007 -61.7745 -0.00185368 -0.00342816 1.7213 -3.81477e-006 -4.76837e-007 179.961 -0.00561136 0.00135229 0.994748 0.967282 1.09428 35.8043 23.7813 -14.1931 2.20201 -7.1055e-015 -9.53674e-007 39.1711 -0.00417387 -0.00511627 1.84924 -3.81475e-006 3.73035e-014 -83.1495 -1.07249e-005 2.86878e-006 1.70977 -3.81478e-006 -4.61853e-014 179.961 -0.000192494 -0.00263497 1.37479 1.34027 0.0712419 40.3258 -2.0544 1.74185 2.26123 -7.1055e-015 -6.66134e-016 30.5588 -0.007334 -0.0124124 2.22213 3.81475e-006 4.44089e-016 -82.6219 -3.1234e-006 -1.30953e-005 1.61865 0 4.88498e-015 -179.961 -0.00156656 -0.00208712 1.40693 0.687998 -0.883786 50.2045 -21.7173 23.9519 2.26828 -1.90737e-006 3.5083e-014 28.6886 -0.00529089 -0.0096774 2.09769 -3.81475e-006 -1.90735e-006 -102.263 -7.04106e-006 -1.35526e-005 1.53753 5.3292e-014 -1.90735e-006 -179.96 -0.000620661 -0.00180086 4.90809 -0.00402069 2.60209e-018 14.1449 -4.77176 -0.0522671 5.56491 -1.2835 -4.76811e-007 26.756 -3.37968 4.35041 2.793 -0.00221253 -9.53669e-007 41.8115 0.930813 -0.399244 2.79274 -1.14441e-005 1.90735e-006 39.9404 -27.0341 -1.80488 4.19086 0.0665913 1.17771e-009 -160.425 -0.0266724 -179.989 6.95114 -1.90735e-006 -4.17444e-014 -2.1001e-006 1.45964e-006 8.31062e-007 
0.849867 91.5284 -1.83494e-007 179.794 -90 -90 0 0 0 -89.9966 12.1786 -89.9963 -5.52397 -0.332283 -3.76435e-016 -25.9896 0.00706482 179.97 6.48883 -1.42109e-014 -0.00308864 36.402 6.08886e-010 4.6355e-010 7.0876 7.6294e-006 -0.00338582 50.0432 0.0230911 0.0147216 3.9586 0.817231 9.20271e-016 14.8194 -2.08121e-010 -1.03543e-011 4.84413 -3.22853 -3.65581 -111.843 -7.33038 103.87 8.51612 1.90735e-006 1.42109e-014 22.7073 -2.11868 35.2545 10.1924 -7.10544e-015 -1.90735e-006 -38.1874 1.89596 49.1783 14.5949 -1.43856 0.585084 -49.2134 -6.36177 -7.81524 14.4623 9.53677e-007 2.86102e-006 -17.6899 -6.9629 2.14599 4.84413 -3.22854 3.65557 61.7758 -8.01716 -78.107 8.51613 -1.90735e-006 -3.8147e-006 -27.0742 0.376974 35.2291 10.1924 -3.8147e-006 -1.90735e-006 39.5844 -4.99874 43.8854 14.4623 -4.76838e-006 -1.42108e-014 12.8836 5.33933 3.03766 14.5949 1.43855 0.585066 46.391 3.8321 -7.42597 -4.03577 0.222746 -3.45377 -98.5794 1.59055 -178.024 3.92618 -4.76838e-007 -1.77636e-015 -84.5766 1.06015e-006 9.95372e-006 6.1232 -2.84218e-014 4.76837e-007 123.307 -5.35323e-006 -8.52514e-006 9.94776 3.81472e-006 1.77636e-014 -60.9562 14.9651 2.56918 0.881234 -0.111043 0.0157101 163.423 -4.51692 -179.353 2.32136 -3.81473e-006 -0.00069809 44.0189 0.00249011 -0.00188616 1.63293 7.62949e-006 -3.55271e-015 -117.32 -1.68353e-005 6.29698e-006 1.7213 7.10557e-015 2.66454e-015 -1.02271e-005 3.39896e-007 9.91238e-006 0.994617 0.967011 -1.09461 38.3054 -23.1813 15.1878 2.20203 9.53685e-007 1.90735e-006 17.9688 -0.0115719 0.00307417 1.84924 3.81475e-006 0.000741958 -63.7694 -0.002403 -0.00474486 1.70976 4.76847e-007 3.55271e-015 -1.37004e-007 1.82898e-006 -2.45187e-007 1.37489 1.34013 -0.0717066 43.605 1.95296 -1.85561 2.26123 -4.76843e-007 4.76837e-007 10.1275 -0.0255379 -0.143019 2.22214 1.90737e-006 4.88498e-015 -83.6659 -0.00275302 0.00594328 1.61866 1.90739e-006 -4.76837e-007 -1.19255e-006 1.11369e-005 1.10555e-006 1.40716 0.687998 0.883418 51.4581 21.1966 -24.4114 2.26829 9.53686e-007 3.81469e-006 12.3152 -0.0213254 -0.0887627 2.09769 3.81475e-006 3.55271e-015 -85.5641 -0.000229134 -0.00298588 1.53753 1.90739e-006 3.01981e-014 7.33669e-007 4.6044e-006 1.0874e-006 -4.03566 0.224094 3.45377 -119.978 -0.81051 176.568 3.92615 3.8147e-006 -2.98023e-008 -84.3931 1.72372e-005 -1.78438e-006 6.12318 -1.52588e-005 -2.68221e-007 110.359 -3.52133e-006 -9.42181e-006 9.94774 -1.42109e-014 -4.47035e-008 -57.0398 -15.7143 1.54142 0.881234 -0.110951 -0.0158548 138.298 4.39974 -178.664 2.32137 -1.4211e-014 8.88179e-016 21.5359 -0.00738157 0.00292403 1.63293 0 -4.76837e-007 -62.1852 -0.00195103 -0.00337701 1.7213 -3.81477e-006 -4.76837e-007 179.961 -0.00561136 0.00135229 0.994748 0.967282 1.09428 35.8043 23.7813 -14.1931 2.20201 -7.1055e-015 -9.53674e-007 39.6753 -0.00245703 -0.0029555 1.84924 -3.81475e-006 3.55271e-014 -83.459 -1.07478e-005 2.82581e-006 1.70977 -3.81478e-006 -4.79616e-014 179.961 -0.000192494 -0.00263497 1.37479 1.34027 0.0712419 40.3258 -2.0544 1.74185 2.26123 7.1055e-015 4.44089e-016 30.9265 -0.00738545 -0.0123182 2.22213 3.81475e-006 1.9984e-015 -83.6798 0.000150067 -3.0021e-005 1.61865 -5.32918e-015 4.44089e-016 -179.961 -0.00156656 -0.00208712 1.40693 0.687998 -0.883786 50.2045 -21.7173 23.9519 2.26828 -1.90737e-006 3.86357e-014 28.9677 -0.0053115 -0.0096037 2.09769 -3.81475e-006 -1.90735e-006 -103.249 -0.000109098 -3.76343e-005 1.53753 3.5528e-014 -1.90735e-006 -179.96 -0.000620661 -0.00180086 4.90809 -0.00402069 8.67362e-019 14.2426 -4.77414 -0.0531699 5.56491 -1.2835 -4.76812e-007 26.5883 -3.33545 4.40606 2.793 -0.00221253 -9.53669e-007 40.658 0.925989 -0.395179 2.79274 -1.14441e-005 1.90735e-006 41.8022 -26.7695 -1.665 4.19086 0.0665913 1.09998e-009 -159.473 -0.0336609 -179.987 6.95114 -1.90735e-006 -4.17444e-014 -2.1001e-006 1.45964e-006 8.31066e-007 
0.849867 91.4525 -1.80324e-007 102.835 -90 -167.277 0 0 0 -89.9965 12.1786 -89.9964 -5.52397 -0.332283 -5.37764e-017 -24.8736 0.00648499 179.97 6.48883 1.42109e-014 -0.00308864 35.5937 6.02286e-010 4.72094e-010 7.0876 7.6294e-006 -0.00338582 50.6068 0.0152224 0.00791383 3.9586 0.817231 1.35308e-016 14.7286 -2.08207e-010 -1.06772e-011 4.84413 -3.22853 -3.65581 -112.95 -5.47247 100.327 8.51612 1.90735e-006 0 22.6649 -2.31271 34.5735 10.1924 -7.10544e-015 -1.90735e-006 -39.7507 2.20349 50.1738 14.5949 -1.43856 0.585084 -50.2465 -7.46729 -4.04946 14.4623 9.53677e-007 2.86102e-006 -19.5073 -8.79336 5.37555 4.84413 -3.22854 3.65557 60.7775 -5.77818 -81.4073 8.51613 -1.90735e-006 -3.8147e-006 -27.2527 0.441427 34.5422 10.1924 -3.8147e-006 -1.90735e-006 41.5458 -5.92261 45.1291 14.4623 -4.76838e-006 -2.84217e-014 14.1032 6.7169 6.48465 14.5949 1.43855 0.585066 46.8372 4.2373 -3.96386 -4.03612 0.216144 -3.45377 -97.9182 1.62588 -178.09 3.92618 -4.76838e-007 -1.33227e-015 -84.4035 1.09117e-006 9.95053e-006 6.1232 2.84218e-014 4.76837e-007 124.056 -5.46426e-006 -8.45177e-006 9.94776 3.81472e-006 2.04281e-014 -61.2151 14.9567 2.5732 0.881234 -0.111043 0.0157101 163.352 -4.52452 -179.361 2.32136 -3.81473e-006 -0.00069809 44.3216 0.0290361 0.0252929 1.63293 7.62949e-006 0 -117.457 -1.68704e-005 6.27214e-006 1.7213 -7.10557e-015 0 -1.02271e-005 3.39896e-007 9.91238e-006 0.994617 0.967011 -1.09461 38.3173 -23.1779 15.193 2.20203 9.53685e-007 1.90735e-006 18.0038 -0.0317689 -0.0590694 1.84924 3.81475e-006 0.000741958 -64.1654 -0.00765219 -0.00220398 1.70976 4.76847e-007 1.77636e-015 -1.37004e-007 1.82898e-006 -2.45187e-007 1.37489 1.34013 -0.0717066 43.6871 1.94941 -1.85934 2.26123 -4.76843e-007 4.76837e-007 10.1761 -0.0103339 -0.0576196 2.22214 1.90737e-006 6.21725e-015 -84.2949 0.000546144 0.00557661 1.61866 1.90739e-006 -4.76837e-007 -9.50282e-006 1.11369e-005 1.10554e-006 1.40716 0.687998 0.883418 51.5384 21.1621 -24.4409 2.26829 9.53686e-007 3.81469e-006 12.2212 -0.00961277 -0.0353952 2.09769 3.81475e-006 8.88178e-015 -85.909 -0.000212129 -0.00298712 1.53753 1.90739e-006 3.37508e-014 -9.28409e-006 4.6044e-006 9.72133e-008 -4.03609 0.21636 3.45377 -119.763 -0.815677 176.519 3.92615 3.8147e-006 -2.98023e-008 -84.2996 1.72344e-005 -1.81248e-006 6.12318 -1.52588e-005 -2.68221e-007 110.186 -3.49285e-006 -9.43226e-006 9.94774 -1.42109e-014 -4.47035e-008 -56.5104 -15.7309 1.67324 0.881234 -0.110951 -0.0158548 137.957 4.38032 -178.642 2.32137 0 1.77636e-015 21.5183 -0.00738579 0.0029133 1.63293 -1.4211e-014 -4.76837e-007 -62.4563 -0.0150608 0.00345935 1.7213 -3.81477e-006 -4.76837e-007 179.961 -0.00561136 0.00135229 0.994748 0.967282 1.09428 35.8042 23.7813 -14.1931 2.20201 -1.4211e-014 -9.53674e-007 39.9479 -0.0376083 -0.0448959 1.84924 -3.81475e-006 3.41948e-014 -83.5565 -1.07471e-005 2.82027e-006 1.70977 -3.81478e-006 -4.61853e-014 179.961 -0.000192494 -0.00263497 1.37479 1.34027 0.0712419 40.3258 -2.0544 1.74185 2.26123 -1.4211e-014 1.55431e-015 31.0649 -0.00459564 -0.00761988 2.22213 3.81475e-006 1.77636e-015 -84.2902 0.0154826 -0.00156141 1.61865 -5.32918e-015 4.44089e-016 -179.961 -0.00156656 -0.00208712 1.40693 0.687998 -0.883786 50.2045 -21.7173 23.9519 2.26828 -1.90737e-006 3.68594e-014 29.0732 -0.00267399 -0.00481825 2.09769 -3.81475e-006 -1.90735e-006 -103.837 -0.0106967 -0.00264658 1.53753 3.90808e-014 -1.90735e-006 -179.96 -0.000620661 -0.00180086 4.90809 -0.00402069 1.73472e-018 14.309 -4.7749 -0.0503546 5.56491 -1.2835 -4.76812e-007 26.3498 -3.2959 4.4553 2.793 -0.00221253 -9.53669e-007 39.644 0.921228 -0.392742 2.79274 -1.14441e-005 1.90735e-006 43.3847 -26.5412 -1.55874 4.19086 0.0665913 1.03517e-009 -158.54 -0.0404816 -179.985 6.95114 -1.90735e-006 -3.90798e-014 -3.92561e-007 1.45964e-006 8.31059e-007 
